<?xml version="1.0" encoding="UTF-8" standalone="no"?><!DOCTYPE svg PUBLIC "-//W3C//DTD SVG 1.1//EN" "http://www.w3.org/Graphics/SVG/1.1/DTD/svg11.dtd"><svg width="100%" height="100%" viewBox="0 0 96 96" version="1.1" xmlns="http://www.w3.org/2000/svg" xmlns:xlink="http://www.w3.org/1999/xlink" xml:space="preserve" style="fill-rule:evenodd;clip-rule:evenodd;stroke-linecap:round;stroke-linejoin:round;stroke-miterlimit:1.41421;"><g id="Mountains"><path d="M8.799,22.973c8.213,-12.901 22.642,-21.467 39.055,-21.467c25.535,0 46.265,20.731 46.265,46.265c0,2.317 -0.17,4.594 -0.5,6.82l-1.841,1.72l-9.119,5.718l-10.745,8.326l-11.245,-7.865l-8.013,-5.574l-13.253,-8.334l-17.425,-10.99l-11.797,-14.884l-1.382,0.265Z" style="fill:#0663fc;stroke-width:0.45px;stroke:#fff;"/><path d="M2.929,58.861l11.319,-3.088l12.899,11.037l19.147,8.586l24.857,4.167l15.019,-12.359l4.491,-1.864c-6.923,16.833 -23.49,28.696 -42.807,28.696c-21.712,0 -39.951,-14.989 -44.925,-35.175Z" style="fill:#296627;stroke-width:0.45px;stroke:#fff;"/><path d="M94.007,44.527c0.074,1.072 0.112,2.154 0.112,3.244c0,6.636 -1.4,12.947 -3.921,18.655c-0.822,0.86 -1.959,2.254 -2.605,2.793c-0.885,0.738 -4.246,3.662 -5.66,4.068c-1.415,0.406 -5.656,3.185 -6.952,3.815c-1.296,0.63 -4.594,3.15 -5.157,3.909c-0.558,0.752 -0.006,0.837 0.003,0.838l-2.797,0c-0.828,0 -1.77,-2.024 -1.934,-2.024c-0.163,0 -0.952,2.097 -1.87,2.097c-0.918,0 -0.918,-0.968 -0.918,-0.968l-1.887,0.752c0,0 -0.643,-0.39 -0.643,-0.58c0,-0.191 0.359,-1.401 -0.236,-2c-0.595,-0.599 12.983,-12.791 12.983,-12.791c0,0 1.783,-1.943 2.548,-3.1c0.765,-1.157 1.588,-0.805 1.696,-1.277c0.107,-0.471 0.456,-2.933 1.155,-3.564c0.7,-0.631 1.336,-0.78 1.363,-1.438c0.027,-0.658 1.642,-1.601 2.757,-1.796c1.116,-0.195 5.393,0.118 5.393,0.118c0,0 0.381,-2.144 0.839,-2.634c0.457,-0.491 2.653,-1.84 3.032,-2.479c0.379,-0.639 1.142,-1.834 1.142,-2.356c0,-0.522 0.308,-1.526 0.792,-2.297c0.144,-0.229 0.42,-0.579 0.765,-0.985Z" style="fill:#ceb59f;stroke-width:0.45px;stroke:#fff;"/><path d="M5.571,28.979l4.847,1.429l5.956,5.395l7.664,4.301l8.014,6.79l6.798,7.206l4.873,8.323l23.092,9.204l-7.109,7.312c0,0 -4.085,0.248 -4.525,0.222c-0.44,-0.027 -3.424,-0.456 -4.084,-0.456c-0.66,0 -2.101,1.014 -2.922,1.014c-0.821,0 -1.235,1.132 -2.262,0.997c-1.028,-0.134 -1.636,-0.114 -1.905,-0.558c-0.269,-0.445 0.984,-1.632 0.463,-1.713c-0.52,-0.081 -1.401,-0.395 -1.894,-0.395c-0.494,0 -0.709,0.766 -1.203,0.82c-0.493,0.055 -0.828,-0.929 -1.407,-0.929c-0.579,0 -2.198,0.835 -3.279,0.673c-1.082,-0.161 -1.403,-1.89 -2.161,-2.051c-0.759,-0.162 -1.903,-0.887 -2.868,-1.022c-0.964,-0.134 -2.245,-1.471 -2.967,-2.117c-0.723,-0.647 -2.633,-0.759 -3.413,-0.758c-0.781,0.002 -3.454,-1.47 -3.996,-1.659c-0.543,-0.188 -2.885,-2.306 -3.352,-2.387c-0.466,-0.08 -1.55,0 -2.183,0c-0.633,0 -0.907,-1.582 -1.369,-1.878c-0.462,-0.296 -1.245,-0.514 -1.901,-0.756c-0.655,-0.242 -0.907,0.592 -1.652,0.619c-0.744,0.028 -0.588,-0.166 -1.045,-0.762c-0.458,-0.597 -1.534,-0.945 -2.211,-1.026c-0.678,-0.081 -2.431,-1.672 -3.355,-1.968l-0.123,-0.04c-1.622,-4.716 -2.503,-9.775 -2.503,-15.038c0,-6.689 1.423,-13.049 3.982,-18.792Z" style="fill:#c2a270;stroke-width:0.45px;stroke:#fff;"/><path d="M10.764,20.126c1.155,-0.243 2.111,-0.398 2.621,-0.386c2.098,0.048 2.44,7.302 3.671,8.441c1.232,1.139 3.21,3.187 3.598,3.719c0.387,0.533 -0.203,1.352 0.555,1.8c0.759,0.448 10.138,5.509 12.972,7.057c2.833,1.549 5.132,2.487 5.664,2.438c0.532,-0.049 0.992,-1.958 1.476,-1.474c0.484,0.484 1.863,1.994 2.783,2.333c0.92,0.338 3.012,2.021 3.359,2.118c0.347,0.096 0.867,2.24 1.4,2.772c0.532,0.533 4.53,4.681 5.361,4.729c0.831,0.049 2.563,-0.03 3.096,0.067c0.532,0.097 3.749,1.791 4.039,2.671c0.291,0.879 1.369,2.307 1.998,2.356c0.63,0.048 1.934,0.312 2.127,0.812c0.193,0.499 1.461,3.77 5.525,6.741c0.667,0.488 1.059,0.324 1.059,0.324l-5.553,5.347c0,0 -9.426,-1.817 -11.513,-2.255c-2.088,-0.438 -5.092,-2.085 -6.806,-2.918c-1.713,-0.833 -7.043,-3.143 -7.043,-3.143c0,0 -1.24,-2.415 -1.831,-3.677c-0.592,-1.262 -1.664,-3.527 -1.664,-3.527l-1.694,0.218c0,0 -0.835,-2.856 -1.166,-3.399c-0.331,-0.543 -1.949,-0.565 -2.167,-0.705c-0.218,-0.141 -2.167,-3.452 -2.389,-3.701c-0.222,-0.25 -2.21,-0.234 -2.374,-0.506c-0.163,-0.272 -0.709,-1.395 -1.565,-2.036c-0.856,-0.64 -1.838,-0.843 -1.838,-0.843c0,0 0.106,-3.316 -0.392,-3.679c-0.499,-0.362 -2.943,-1.269 -3.633,-1.269c-0.689,0 -1.284,0.401 -1.919,0.156c-0.635,-0.245 -0.763,-0.765 -1.149,-0.792c-0.385,-0.028 -1.6,1.044 -2.381,0.713c-0.782,-0.331 -1.329,-4.075 -1.914,-4.777c-0.585,-0.702 -2.801,-1.608 -3.239,-2.423c-0.438,-0.815 -0.753,-1.682 -1.225,-1.877c-0.461,-0.19 -2.175,-1.438 -3.653,-1.136c1.496,-3.69 3.455,-7.144 5.804,-10.289Z" style="fill:#85969e;stroke-width:0.45px;stroke:#fff;"/><path d="M71.965,66.776c0,0 -2.568,2.124 -4.755,3.788c-1.636,1.245 -3.37,2.691 -3.762,3.094c-2.439,2.503 -4.413,3.432 -5.319,4.367c-0.32,0.331 -4.206,2.593 -4.445,3.18c-0.24,0.588 -0.822,4.069 -2.308,4.911c-1.487,0.841 -13.266,6.58 -13.266,6.58c0,0 5.926,0.869 6.332,0.869c0.406,0 8.43,-4.701 9.426,-5.532c0.996,-0.831 1.025,-4.726 1.17,-5.679c0.145,-0.953 4.671,-3.867 5.588,-4.874c2.165,-2.375 11.339,-10.704 11.339,-10.704Z" style="fill:#fff;stroke-width:0.55px;stroke-linecap:butt;stroke:#fff;"/><path d="M65.522,71.571l1.336,0.247c0,0 0.244,-0.143 -0.018,-0.488c-0.461,-0.61 2.914,-3.406 2.914,-3.406l-4.232,3.647Z" style="fill:#85969e;"/></g><path d="M48.052,0.283c0.865,0.004 1.729,0.028 2.592,0.077c1.699,0.098 3.393,0.285 5.072,0.564c1.988,0.33 3.954,0.787 5.884,1.368c1.947,0.586 3.856,1.298 5.711,2.131c2.403,1.078 4.715,2.357 6.905,3.819c2.255,1.504 4.382,3.201 6.349,5.066c1.932,1.831 3.71,3.823 5.31,5.949c1.608,2.135 3.036,4.407 4.262,6.782c1.018,1.97 1.896,4.012 2.627,6.106c0.758,2.171 1.357,4.398 1.79,6.656c0.567,2.96 0.85,5.973 0.85,8.987c0,2.17 -0.146,4.34 -0.44,6.49c-0.314,2.295 -0.797,4.566 -1.444,6.79c-0.717,2.463 -1.635,4.866 -2.742,7.18c-1.237,2.587 -2.711,5.061 -4.394,7.382c-1.646,2.271 -3.492,4.395 -5.51,6.342c-2.122,2.048 -4.433,3.899 -6.896,5.52c-2.482,1.635 -5.117,3.036 -7.861,4.177c-2.926,1.218 -5.975,2.139 -9.086,2.746c-3.007,0.586 -6.069,0.879 -9.132,0.879c-3.063,0 -6.126,-0.293 -9.133,-0.879c-3.11,-0.607 -6.159,-1.528 -9.086,-2.746c-2.743,-1.141 -5.378,-2.542 -7.86,-4.177c-2.463,-1.621 -4.775,-3.472 -6.897,-5.52c-2.086,-2.013 -3.989,-4.216 -5.677,-6.573c-1.614,-2.255 -3.03,-4.65 -4.227,-7.151c-1.065,-2.226 -1.955,-4.535 -2.659,-6.899c-0.688,-2.313 -1.199,-4.679 -1.526,-7.071c-0.295,-2.15 -0.441,-4.32 -0.441,-6.49c0,-3.014 0.283,-6.027 0.851,-8.987c0.415,-2.163 0.981,-4.297 1.694,-6.381c0.734,-2.144 1.623,-4.236 2.656,-6.253c1.242,-2.422 2.692,-4.736 4.328,-6.91c1.601,-2.126 3.379,-4.118 5.31,-5.949c1.968,-1.865 4.094,-3.562 6.349,-5.066c2.191,-1.462 4.503,-2.741 6.905,-3.819c1.9,-0.852 3.856,-1.579 5.852,-2.173c1.932,-0.576 3.901,-1.027 5.89,-1.35c1.631,-0.266 3.276,-0.445 4.926,-0.54c0.863,-0.049 1.727,-0.073 2.591,-0.077c0.103,-0.001 0.205,-0.001 0.307,0ZM47.756,3.598c-0.805,0.004 -1.61,0.027 -2.413,0.073c-1.581,0.09 -3.157,0.265 -4.719,0.524c-1.803,0.299 -3.588,0.711 -5.34,1.233c-1.855,0.552 -3.674,1.228 -5.44,2.02c-2.235,1.003 -4.385,2.193 -6.422,3.552c-2.099,1.4 -4.078,2.98 -5.909,4.715c-1.797,1.703 -3.452,3.557 -4.941,5.536c-1.523,2.022 -2.872,4.175 -4.027,6.428c-0.961,1.876 -1.787,3.82 -2.469,5.814c-0.663,1.938 -1.19,3.922 -1.576,5.933c-0.528,2.754 -0.791,5.558 -0.791,8.362c0,2.066 0.142,4.132 0.429,6.178c0.311,2.222 0.792,4.419 1.439,6.567c0.661,2.196 1.495,4.339 2.491,6.404c1.14,2.363 2.49,4.624 4.03,6.747c1.558,2.149 3.308,4.157 5.223,5.994c1.949,1.869 4.067,3.56 6.322,5.045c2.309,1.52 4.759,2.823 7.311,3.885c2.721,1.132 5.555,1.988 8.447,2.552c2.798,0.546 5.648,0.818 8.498,0.818c2.85,0 5.7,-0.272 8.497,-0.818c2.892,-0.564 5.727,-1.42 8.447,-2.552c2.552,-1.062 5.003,-2.365 7.311,-3.885c2.255,-1.485 4.374,-3.176 6.322,-5.045c1.915,-1.837 3.666,-3.845 5.224,-5.994c1.539,-2.123 2.89,-4.384 4.029,-6.747c1.016,-2.106 1.863,-4.293 2.53,-6.534c0.627,-2.107 1.095,-4.26 1.4,-6.437c0.287,-2.046 0.43,-4.112 0.43,-6.178c0,-2.804 -0.263,-5.608 -0.792,-8.362c-0.402,-2.1 -0.959,-4.17 -1.663,-6.188c-0.68,-1.947 -1.497,-3.846 -2.443,-5.678c-1.141,-2.21 -2.469,-4.322 -3.965,-6.309c-1.489,-1.979 -3.144,-3.833 -4.942,-5.536c-1.831,-1.735 -3.809,-3.315 -5.908,-4.715c-2.037,-1.359 -4.188,-2.549 -6.422,-3.552c-1.725,-0.774 -3.5,-1.436 -5.31,-1.981c-1.794,-0.541 -3.623,-0.965 -5.471,-1.272c-1.562,-0.259 -3.138,-0.434 -4.718,-0.524c-0.804,-0.046 -1.608,-0.069 -2.413,-0.073c-0.096,0 -0.191,0 -0.286,0Z" style="fill:#000;fill-rule:nonzero;stroke-width:0.77px;stroke-linecap:butt;stroke:#fff;"/></svg>